                            <svg width="22" height="24" viewBox="0 0 22 24" fill="none"
                                xmlns="http://www.w3.org/2000/svg">
                                <path
                                    d="M20.7253 13.4992H17.7104C17.3189 13.4992 17.0174 13.8067 16.9724 14.1951C16.5749 17.624 13.2765 20.1784 9.60168 19.337C7.43576 18.8405 5.67632 17.084 5.17684 14.9196C4.27238 10.9973 7.24227 7.49939 11.0131 7.49939V9.74931C11.0131 10.0523 11.1961 10.3268 11.4766 10.4423C11.7571 10.5578 12.0781 10.4933 12.2941 10.2788L16.7939 5.77896C17.0864 5.48647 17.0864 5.01099 16.7939 4.7185L12.2941 0.218663C12.0781 0.00567087 11.7571 -0.0588267 11.4766 0.056669C11.1961 0.172165 11.0131 0.446654 11.0131 0.749643V2.99956C5.17234 2.99956 0.431018 7.79188 0.515015 13.6522C0.594512 19.223 5.28334 23.9148 10.8541 23.9988C16.4504 24.0828 21.0763 19.7629 21.4842 14.2881C21.5157 13.8607 21.1542 13.4992 20.7253 13.4992Z"
                                    fill="#B2965C"></path>
                            </svg>